<svg width="50" height="50" viewBox="0 0 50 50" fill="none" xmlns="http://www.w3.org/2000/svg">
<rect width="50" height="50" rx="10" fill="#3BBAAF"/>
<g clip-path="url(#clip0_1_323)">
<path d="M25 9C16.1771 9 9 16.1771 9 25C9 33.8229 16.1771 41 25 41C33.8229 41 41 33.8217 41 25C41 16.1783 33.8229 9 25 9ZM25 38.5213C17.5453 38.5213 11.4787 32.4559 11.4787 25C11.4787 17.5441 17.5453 11.4787 25 11.4787C32.4559 11.4787 38.5213 17.5441 38.5213 25C38.5213 32.4559 32.4547 38.5213 25 38.5213Z" fill="white"/>
<path d="M32.3407 19.4353C31.8362 18.9767 31.0517 19.0127 30.5907 19.5195L23.0307 27.8443L19.3783 24.1312C18.8962 23.6429 18.1129 23.6355 17.6259 24.1164C17.1376 24.596 17.1301 25.3805 17.611 25.8688L22.1829 30.5164C22.4172 30.7543 22.7344 30.8869 23.0666 30.8869C23.074 30.8869 23.0827 30.8869 23.0901 30.8882C23.4322 30.8807 23.7544 30.7345 23.9837 30.4817L32.4249 21.1865C32.8848 20.6784 32.8476 19.8951 32.3407 19.4353Z" fill="white"/>
</g>
<defs>
<clipPath id="clip0_1_323">
<rect width="32" height="32" fill="white" transform="translate(9 9)"/>
</clipPath>
</defs>
</svg>
