<svg width="50" height="50" viewBox="0 0 50 50" fill="none" xmlns="http://www.w3.org/2000/svg">
<rect width="50" height="50" rx="10" fill="#239AFF"/>
<path d="M36.7048 30.1933L30.4269 27.2481C31.0503 26.4873 31.5098 25.6032 31.7699 24.6543C32.9658 24.3859 33.8623 23.316 33.8623 22.0404C33.8623 20.8551 33.0883 19.8467 32.0189 19.4951V17.0189C32.0189 13.1488 28.8701 10 25 10C21.1299 10 17.9811 13.1488 17.9811 17.0189V19.4951C16.9117 19.8467 16.1377 20.8551 16.1377 22.0404C16.1377 23.316 17.0342 24.3859 18.2301 24.6543C18.4901 25.6032 18.9497 26.4874 19.5731 27.2481L13.2952 30.1933C11.2935 31.1325 10 33.168 10 35.3791V40H40V35.3791C40 33.168 38.7065 31.1325 36.7048 30.1933ZM19.7389 17.0189C19.7389 14.118 22.099 11.7578 25 11.7578C27.901 11.7578 30.2611 14.118 30.2611 17.0189V18.6098C28.1383 17.8117 27.2664 16.3656 27.2277 16.2994L26.5902 15.1445L25.7711 16.1934C25.7529 16.2168 24.0256 18.3719 19.7389 19.3223V17.0189ZM17.8955 22.0404C17.8955 21.5324 18.3086 21.1193 18.8166 21.1193H19.7389C23.2281 20.4203 25.3428 18.9695 26.3781 18.0625C27.0678 18.8236 28.3141 19.8824 30.2611 20.4625V21.1193H31.1834C31.6914 21.1193 32.1045 21.5324 32.1045 22.0404C32.1045 22.5484 31.6914 22.9615 31.1834 22.9615H30.3098L30.185 23.6922C29.7531 26.2234 27.5723 28.0604 25 28.0604C22.4277 28.0604 20.2469 26.2234 19.815 23.6922L19.6902 22.9615H18.8166C18.3086 22.9615 17.8955 22.5484 17.8955 22.0404V22.0404ZM27.2089 29.461L25 32.8524L22.7911 29.461C23.4984 29.6954 24.2439 29.8182 25 29.8182C25.7561 29.8182 26.5016 29.6955 27.2089 29.461ZM17.8711 38.2422C17.2249 38.2422 16.6992 37.7165 16.6992 37.0703C16.6992 36.4241 17.2249 35.8984 17.8711 35.8984C18.5172 35.8984 19.0429 36.4241 19.0429 37.0703C19.0429 37.7165 18.5172 38.2422 17.8711 38.2422ZM11.7578 35.3791C11.7578 33.8465 12.6543 32.4357 14.0418 31.7847L16.9922 30.4006V34.2755C15.8049 34.6497 14.9414 35.761 14.9414 37.0703C14.9414 37.4869 15.0294 37.8831 15.1868 38.2422H11.7578V35.3791ZM20.5554 38.2422C20.7128 37.8831 20.8008 37.4869 20.8008 37.0703C20.8008 35.761 19.9373 34.6497 18.75 34.2755V29.5759L20.2958 28.8507L25 36.0733L29.7042 28.8507L31.1328 29.5209V33.0563C29.721 33.3921 28.6674 34.6629 28.6674 36.1761V38.2422H20.5554ZM30.4253 38.2422V36.1761C30.4253 35.3768 31.0755 34.7266 31.8747 34.7266H32.1486C32.9479 34.7266 33.5982 35.3768 33.5982 36.1761V38.2422H30.4253ZM38.2422 38.2422H35.356V36.1761C35.356 34.663 34.3025 33.3921 32.8906 33.0563V30.3455L35.9582 31.7846C37.3457 32.4357 38.2422 33.8465 38.2422 35.3791V38.2422Z" fill="white"/>
</svg>
