<svg width="195" height="38" viewBox="0 0 195 38" fill="none" xmlns="http://www.w3.org/2000/svg">
<path d="M57.1426 16.4145C58.4685 17.4278 59.4208 18.8524 59.8504 20.4649H57.6126C57.2124 19.4223 56.5015 18.5279 55.5761 17.9026C54.5608 17.2275 53.3596 16.8871 52.1411 16.9292C51.1276 16.9119 50.1302 17.1835 49.2655 17.7124C48.3973 18.2544 47.6993 19.0299 47.2514 19.9502C46.7384 21.0172 46.4853 22.1905 46.5129 23.3741C46.4904 24.5356 46.7435 25.686 47.2514 26.7308C47.6978 27.6521 48.3961 28.4281 49.2655 28.9687C50.1302 29.4975 51.1276 29.7692 52.1411 29.7519C53.3578 29.792 54.5573 29.456 55.5761 28.7896C56.5022 28.1458 57.2121 27.237 57.6126 26.1826H59.8504C59.4187 27.788 58.4663 29.2048 57.1426 30.2106C55.699 31.2469 53.9503 31.7707 52.1746 31.6988C50.7503 31.7241 49.346 31.3605 48.113 30.647C46.9325 29.9367 45.9749 28.9094 45.3493 27.6819C44.6705 26.3368 44.3288 24.847 44.3534 23.3405C44.3242 21.8446 44.6542 20.3635 45.3157 19.0215C45.9366 17.7654 46.9082 16.716 48.113 16.0005C49.3476 15.2543 50.7657 14.8669 52.2082 14.8815C53.9769 14.8352 55.7115 15.3741 57.1426 16.4145Z" fill="black"/>
<path d="M71.1292 19.5138C71.9845 20.1305 72.6198 21.005 72.9419 22.009V18.7418H75.0678V31.5645H72.9419V28.2973C72.6234 29.3031 71.9874 30.1786 71.1292 30.7925C70.2014 31.4363 69.0916 31.7657 67.9627 31.7323C66.8873 31.7532 65.8268 31.4784 64.8969 30.9379C64.0055 30.4038 63.2838 29.6278 62.8157 28.7001C62.2823 27.6155 62.0212 26.4173 62.0549 25.2091C62.0225 23.9974 62.2835 22.7959 62.8157 21.7069C63.2696 20.7431 63.9923 19.931 64.8969 19.3684C65.8203 18.8318 66.8725 18.5572 67.9403 18.5739C69.0768 18.5358 70.1952 18.8654 71.1292 19.5138V19.5138ZM65.4228 21.7516C64.6171 22.7119 64.2159 23.9475 64.3039 25.1979C64.2147 26.4484 64.616 27.6845 65.4228 28.6441C65.8281 29.0639 66.3181 29.3927 66.8601 29.6087C67.4022 29.8248 67.984 29.9232 68.5669 29.8973C69.351 29.9027 70.1227 29.7021 70.8048 29.3155C71.4676 28.923 72.0036 28.3481 72.3489 27.6595C72.7429 26.9 72.9392 26.0533 72.9195 25.1979C72.9363 24.3392 72.7403 23.4896 72.3489 22.7251C72.0066 22.0372 71.4697 21.4652 70.8048 21.0803C70.1227 20.6937 69.351 20.493 68.5669 20.4985C67.9867 20.4704 67.407 20.5645 66.8654 20.7746C66.3238 20.9847 65.8324 21.3061 65.4228 21.7181V21.7516Z" fill="black"/>
<path d="M82.4189 19.2674C83.2976 18.7569 84.301 18.5012 85.3169 18.529V20.8451H84.6679C83.6065 20.7979 82.5618 21.1224 81.714 21.7626C81.308 22.1535 80.9962 22.6317 80.8024 23.1609C80.6085 23.6902 80.5376 24.2566 80.5951 24.8172V31.5307H78.4691V18.7415H80.5615V21.3374C80.9599 20.4774 81.6069 19.7564 82.4189 19.2674V19.2674Z" fill="black"/>
<path d="M95.8347 19.5136C96.697 20.1233 97.3341 21.0003 97.6474 22.0088V14.2771H99.7733V31.5643H97.6474V28.2971C97.3371 29.3071 96.6994 30.185 95.8347 30.7923C94.9121 31.4381 93.8051 31.7679 92.6794 31.7322C91.6116 31.7489 90.5594 31.4743 89.636 30.9377C88.7439 30.401 88.0192 29.626 87.5436 28.6999C87.0152 27.6136 86.7544 26.4166 86.7827 25.2089C86.7556 23.9977 87.0164 22.7974 87.5436 21.7067C88.0107 20.76 88.7361 19.9648 89.636 19.4129C90.5594 18.8764 91.6116 18.6017 92.6794 18.6185C93.8001 18.5697 94.9066 18.8836 95.8347 19.5136V19.5136ZM90.1395 21.7515C89.3338 22.7117 88.9326 23.9473 89.0206 25.1977C88.9314 26.4482 89.3327 27.6843 90.1395 28.644C90.544 29.0649 91.0338 29.3945 91.576 29.6106C92.1183 29.8267 92.7005 29.9244 93.2836 29.8972C94.0676 29.9026 94.8393 29.7019 95.5214 29.3153C96.1876 28.9235 96.7274 28.3487 97.0767 27.6593C97.4669 26.8988 97.6593 26.0522 97.6362 25.1977C97.6565 24.3399 97.4643 23.4904 97.0767 22.7249C96.7299 22.0367 96.1892 21.4649 95.5214 21.0801C94.8393 20.6935 94.0676 20.4929 93.2836 20.4983C92.7033 20.4696 92.1234 20.5633 91.5817 20.7734C91.04 20.9836 90.5486 21.3054 90.1395 21.7179V21.7515Z" fill="black"/>
<path d="M103.186 14.0308C103.487 13.7985 103.857 13.6725 104.238 13.6725C104.618 13.6725 104.988 13.7985 105.29 14.0308C105.42 14.1512 105.523 14.2987 105.591 14.463C105.658 14.6273 105.689 14.8044 105.681 14.9819C105.691 15.1579 105.66 15.3337 105.592 15.4964C105.525 15.6591 105.421 15.8045 105.29 15.9217C104.991 16.1615 104.62 16.2922 104.238 16.2922C103.855 16.2922 103.484 16.1615 103.186 15.9217C103.054 15.8045 102.951 15.6591 102.883 15.4964C102.815 15.3337 102.785 15.1579 102.794 14.9819C102.786 14.8044 102.817 14.6273 102.885 14.463C102.953 14.2987 103.055 14.1512 103.186 14.0308V14.0308ZM105.29 18.7414V31.5641H103.164V18.7414H105.29Z" fill="black"/>
<path d="M119.074 19.9726C120.06 21.1177 120.555 22.6053 120.451 24.1126V31.5646H118.325V24.3028C118.398 23.2304 118.044 22.1726 117.34 21.3601C116.993 21.0117 116.577 20.74 116.118 20.5627C115.659 20.3854 115.168 20.3063 114.677 20.3307C114.158 20.3065 113.64 20.3938 113.157 20.5868C112.675 20.7799 112.239 21.0741 111.88 21.4496C111.107 22.3896 110.73 23.5933 110.828 24.8063V31.5982H108.702V18.7418H110.828V21.7741C111.108 20.7947 111.722 19.9439 112.562 19.3684C113.418 18.8039 114.424 18.5113 115.449 18.5292C116.121 18.5012 116.791 18.6152 117.416 18.864C118.041 19.1127 118.606 19.4905 119.074 19.9726Z" fill="black"/>
<path d="M132.143 19.5139C132.999 20.1306 133.634 21.005 133.956 22.0091V18.7418H136.082V31.5646H133.956V28.2973C133.638 29.3032 133.002 30.1787 132.143 30.7925C131.216 31.4378 130.106 31.7673 128.977 31.7324C127.909 31.7492 126.857 31.4745 125.933 30.938C125.042 30.4039 124.32 29.6279 123.852 28.7002C123.319 27.6156 123.058 26.4173 123.091 25.2091C123.059 23.9975 123.32 22.796 123.852 21.7069C124.313 20.7597 125.035 19.9638 125.933 19.4132C126.857 18.8766 127.909 18.602 128.977 18.6187C130.101 18.5707 131.211 18.8845 132.143 19.5139ZM126.437 21.7517C125.631 22.7119 125.23 23.9476 125.318 25.198C125.229 26.4485 125.63 27.6846 126.437 28.6442C126.842 29.064 127.332 29.3927 127.874 29.6088C128.416 29.8248 128.998 29.9232 129.581 29.8974C130.365 29.9028 131.137 29.7022 131.819 29.3156C132.482 28.923 133.018 28.3482 133.363 27.6596C133.757 26.9 133.953 26.0534 133.934 25.198C133.95 24.3392 133.754 23.4897 133.363 22.7252C133.021 22.0373 132.484 21.4653 131.819 21.0804C131.137 20.6937 130.365 20.4931 129.581 20.4985C129.001 20.4705 128.421 20.5646 127.88 20.7747C127.338 20.9847 126.847 21.3062 126.437 21.7181V21.7517Z" fill="black"/>
<path d="M141.587 14.2771V31.5643H139.461V14.2771H141.587Z" fill="black"/>
<path d="M145.022 14.0308C145.324 13.7985 145.693 13.6725 146.074 13.6725C146.454 13.6725 146.824 13.7985 147.126 14.0308C147.258 14.1507 147.362 14.2978 147.432 14.462C147.501 14.6262 147.534 14.8036 147.528 14.9819C147.536 15.1586 147.503 15.3348 147.434 15.4974C147.364 15.6601 147.259 15.805 147.126 15.9217C146.828 16.1615 146.456 16.2922 146.074 16.2922C145.691 16.2922 145.32 16.1615 145.022 15.9217C144.89 15.8045 144.787 15.6591 144.719 15.4964C144.651 15.3337 144.621 15.1579 144.63 14.9819C144.623 14.8044 144.653 14.6273 144.721 14.463C144.789 14.2987 144.891 14.1512 145.022 14.0308V14.0308ZM147.126 18.7414V31.5641H145V18.7414H147.126Z" fill="black"/>
<path d="M156.648 29.6957V31.5643H155.059C153.998 31.6449 152.948 31.3121 152.127 30.6356C151.764 30.2049 151.491 29.7057 151.323 29.1676C151.156 28.6295 151.099 28.0634 151.154 27.5026V20.5878H149.24V18.7416H151.154V15.5415H153.291V18.7416H156.648V20.5878H153.291V27.5474C153.224 28.1484 153.388 28.7524 153.75 29.237C154.194 29.5929 154.761 29.7579 155.327 29.6957H156.648Z" fill="black"/>
<path d="M160.139 18.7415L164.29 28.8118L168.15 18.7415H170.511L162.891 37.64H160.485L163.148 31.3293L157.767 18.7415H160.139Z" fill="black"/>
<path d="M172.156 31.4526L170.958 29.2259V31.4526H172.156Z" fill="#5079BB"/>
<path d="M170.971 29.0318L170.966 29.0418L173.537 30.3294L173.542 30.3194L170.971 29.0318Z" fill="white"/>
<path d="M173.532 28.9463H170.959V29.0358L173.532 30.3225V28.9463Z" fill="#E74336"/>
<path d="M173.532 31.4526V30.3225L170.958 29.0357V29.2148L172.156 31.4526H173.532Z" fill="#F8B90C"/>
<path d="M184.419 22.4565L184.005 19.8047L184.43 22.4453" fill="black"/>
<path d="M185.079 24.3477L187.776 24.7393V24.7281L185.079 24.3365V24.3477Z" fill="black"/>
<path d="M185.046 24.1237L187.776 22.7698V22.7586L185.046 24.1125V24.1237Z" fill="black"/>
<path d="M184.978 23.7767L187.764 18.5738H187.753L184.967 23.7655L184.978 23.7767Z" fill="black"/>
<path d="M185.102 24.672L187.776 27.2343L185.102 24.6161" fill="black"/>
<path d="M182.058 29.1702L180.749 31.5983L182.058 29.159" fill="black"/>
<path d="M181.029 20.7558L178.802 18.6075H178.791L181.018 20.7558H181.029Z" fill="black"/>
<path d="M185.829 31.4525L185.001 26.1489L185.829 31.4525Z" fill="black"/>
<path d="M185.113 24.9965C185.115 25.3724 185.077 25.7474 185.001 26.1155L185.829 31.4191H187.776V27.2344L185.102 24.6721C185.102 24.7839 185.102 24.8958 185.102 24.9965" fill="#EC7024"/>
<path d="M184.62 22.7697C184.788 23.0844 184.916 23.419 185.001 23.7655L187.776 18.5738H185.135V21.5725C184.898 20.9073 184.516 20.3033 184.016 19.8046L184.43 22.4564C184.496 22.557 184.556 22.6616 184.609 22.7697" fill="#E74336"/>
<path d="M184.62 27.2454C184.298 27.8593 183.815 28.3738 183.222 28.7335C182.875 28.9367 182.497 29.0804 182.103 29.1587L180.794 31.598C181.718 31.5623 182.614 31.2677 183.378 30.7476C184.189 30.1881 184.801 29.3846 185.124 28.4538V31.4525H185.84L185.001 26.16C184.928 26.5507 184.796 26.9279 184.609 27.2789" fill="#F9D571"/>
<path d="M185.046 24.1124L187.776 22.7585V18.5738L184.99 23.7767L185.057 24.1124" fill="#6DA67E"/>
<path d="M181.185 29.2484C180.661 29.276 180.137 29.1904 179.648 28.9973C179.16 28.8042 178.718 28.5083 178.355 28.1295C178.208 27.9717 178.074 27.8034 177.952 27.626L175.468 28.8568C175.921 29.6668 176.576 30.3454 177.37 30.8261C178.275 31.3682 179.314 31.6436 180.369 31.6205H180.749L182.058 29.1925C181.77 29.247 181.478 29.2733 181.185 29.2708" fill="#F8B90C"/>
<path d="M182.092 29.159L180.782 31.5983L182.092 29.159Z" fill="#EAC060"/>
<path d="M185.079 24.3362L187.776 24.7278V22.7697L185.046 24.1124V24.3362" fill="#33A553"/>
<path d="M175.3 28.5323C175.3 28.633 175.423 28.7449 175.468 28.8456L177.952 27.6148C177.482 26.84 177.246 25.9468 177.269 25.0413C177.268 24.4336 177.362 23.8294 177.549 23.2511L174.807 22.8483C174.629 23.5504 174.538 24.2721 174.539 24.9966C174.513 26.2184 174.774 27.4293 175.3 28.5323" fill="#87AADA"/>
<path d="M175.456 28.8119L177.94 27.5811L175.456 28.8119Z" fill="#87AADA"/>
<path d="M185.079 24.3476C185.085 24.452 185.085 24.5566 185.079 24.6609L187.753 27.2232V24.7392L185.079 24.3476Z" fill="#F19D6D"/>
<path d="M178.354 21.8858C178.699 21.5284 179.113 21.2448 179.571 21.0525C180.029 20.8601 180.521 20.763 181.017 20.7669L178.78 18.6186C178.28 18.7521 177.801 18.9555 177.359 19.2228C176.468 19.7547 175.75 20.5315 175.289 21.4607C175.081 21.8951 174.916 22.3485 174.796 22.8145L177.538 23.2174C177.705 22.7097 177.98 22.244 178.343 21.8523" fill="#5079BB"/>
<path d="M181.185 20.7558C181.891 20.7428 182.587 20.9207 183.199 21.2705C183.678 21.5522 184.09 21.9339 184.408 22.3895L183.983 19.7488C183.79 19.5627 183.584 19.3907 183.367 19.2341C182.483 18.6388 181.434 18.3373 180.369 18.3726C179.841 18.3717 179.314 18.4356 178.802 18.5628L181.04 20.7111H181.197" fill="#E87369"/>
<path d="M194.03 14.7136L190.607 14.9262V14.9374L194.03 14.7136Z" fill="black"/>
<path d="M191.065 15.9444C191.412 16.2342 191.856 16.3821 192.307 16.3584C192.762 16.3795 193.208 16.2321 193.56 15.9444C193.717 15.8042 193.842 15.6315 193.925 15.4382C194.008 15.2449 194.048 15.0358 194.042 14.8255C194.042 14.8255 194.042 14.7472 194.042 14.7136L190.618 14.9262C190.633 15.3089 190.798 15.6704 191.076 15.9332" fill="#5079BB"/>
<path d="M193.572 13.7178C193.225 13.4181 192.776 13.2621 192.318 13.2814C191.864 13.2604 191.418 13.4168 191.076 13.7178C190.928 13.863 190.81 14.0372 190.731 14.2297C190.652 14.4221 190.614 14.6287 190.618 14.8367V14.9262L194.042 14.7136C194.033 14.5247 193.988 14.3393 193.907 14.1683C193.826 13.9973 193.712 13.8441 193.572 13.7178" fill="#F8B90C"/>
<path d="M190.976 25.5222L193.583 31.4525L190.976 25.511V25.5222Z" fill="black"/>
<path d="M193.633 23.6635L190.975 24.1839L190.977 24.1948L193.635 23.6745L193.633 23.6635Z" fill="black"/>
<path d="M190.976 23.4633L193.639 19.2898V19.2786L190.976 23.4521V23.4633Z" fill="black"/>
<path d="M193.639 23.6761L190.976 24.202V24.6719L193.639 26.5629V23.6761Z" fill="#F9D571"/>
<path d="M190.976 25.5109L193.583 31.4523H193.639V26.5738L190.976 24.6829V25.5109Z" fill="#F8B90C"/>
<path d="M190.976 31.4524H193.583L190.976 25.5222V31.4524Z" fill="#33A553"/>
<path d="M190.976 18.5737V23.4522L193.639 19.2786V18.5737H190.976Z" fill="#5079BB"/>
<path d="M193.639 19.2897L190.976 23.4632V24.1905L193.639 23.6647V19.2897Z" fill="#EC7024"/>
<path d="M9.83503 7.09391L19.592 3.94976V0L9.81265 7.11629L9.83503 7.09391Z" fill="#5079BB"/>
<path d="M19.592 3.96091L9.80151 7.11624L9.8127 7.12743L19.592 20.5991V3.96091Z" fill="#87AADA"/>
<path d="M19.648 3.93857L29.4049 7.12747L29.4161 7.11629L19.6256 0V3.93857H19.648Z" fill="#87AADA"/>
<path d="M29.4048 7.12726L19.6478 3.93835H19.6255L19.6031 20.599L29.4048 7.12726Z" fill="#5079BB"/>
<path d="M29.4498 7.13847L35.4583 15.452L39.2179 14.2324L29.4162 7.11609L29.405 7.12728L29.4498 7.13847Z" fill="#E74336"/>
<path d="M35.4581 15.4522L29.4496 7.14983L29.4048 7.13864L19.6031 20.6215L35.4581 15.4522Z" fill="#E87369"/>
<path d="M35.4917 15.5081L35.4693 25.7573H35.4805L39.2177 14.2325L35.4693 15.4633L35.4917 15.5081Z" fill="#E87369"/>
<path d="M35.4693 25.7571L35.4917 15.5079L35.4693 15.4631L19.6031 20.6213L35.4693 25.7571Z" fill="#E74336"/>
<path d="M29.3824 34.149L19.6367 37.2931H31.6986L29.4048 34.1266L29.3824 34.149Z" fill="#F19D6D"/>
<path d="M29.4048 34.1265L19.6031 20.6324L19.5919 32.4258V37.2931H19.6367L29.3824 34.1489L29.4048 34.1265Z" fill="#EC7024"/>
<path d="M31.7098 37.2929H31.7322L35.447 25.8464L29.4048 34.1152L31.7098 37.2929Z" fill="#EC7024"/>
<path d="M19.6255 20.6323L29.4048 34.1152L35.447 25.8465L35.4694 25.8017L19.6255 20.6323Z" fill="#F19D6D"/>
<path d="M7.49677 37.2933H19.5027L9.80173 34.1156L7.49677 37.2933Z" fill="#F8B90C"/>
<path d="M19.592 20.6324L9.80154 34.1153L19.5025 37.293H19.592V32.4258V20.6324Z" fill="#F9D571"/>
<path d="M9.7681 34.1044L3.75954 25.7797L3.74835 25.7909L7.48552 37.2709L9.79048 34.1044H9.7681Z" fill="#F9D571"/>
<path d="M3.75952 25.7795L9.76808 34.1042H9.79046L19.5921 20.6213L3.75952 25.7795Z" fill="#F8B90C"/>
<path d="M3.74812 15.4855L0.0109558 14.2771L3.72575 25.7012L3.74812 15.4855Z" fill="#33A553"/>
<path d="M19.6032 20.6104L13.8744 18.7418L3.78178 15.4745L3.7594 25.6902L3.77059 25.7574H3.78178L19.6032 20.6104Z" fill="#76B483"/>
<path d="M3.74827 15.4297L9.81277 7.13853L9.80158 7.11615L-9.15527e-05 14.2324V14.2436L3.74827 15.4632V15.4297Z" fill="#76B483"/>
<path d="M19.6033 20.6104L9.8016 7.1275L3.73709 15.4186V15.4522L13.8409 18.7418L19.6033 20.6104Z" fill="#33A553"/>
</svg>
