<svg width="16" height="23" viewBox="0 0 16 23" fill="none" xmlns="http://www.w3.org/2000/svg">
<path d="M7.895 4.23299C8.25566 4.26955 8.61259 4.33645 8.962 4.43299C9.95687 4.67651 10.8403 5.24886 11.4693 6.05727C12.0982 6.86569 12.4356 7.86279 12.427 8.88699V14.579L12.843 14.997L13.19 15.346H2.511L2.858 14.997L3.274 14.579V8.88599C3.26536 7.86179 3.60284 6.86469 4.23175 6.05627C4.86066 5.24786 5.74413 4.67551 6.739 4.43199C7.08966 4.34094 7.44617 4.27411 7.806 4.23199M7.851 0.998992C7.66757 0.995991 7.48542 1.03002 7.31544 1.09906C7.14547 1.16809 6.99117 1.2707 6.86177 1.40075C6.73237 1.5308 6.63054 1.68562 6.56237 1.85593C6.49419 2.02625 6.46108 2.20858 6.465 2.39199V3.04099C5.15047 3.3547 3.97991 4.10202 3.1421 5.16243C2.30429 6.22285 1.84806 7.53455 1.847 8.88599V13.986L0 15.845V16.773H15.7V15.845L13.853 13.989V8.88899C13.8519 7.53755 13.3957 6.22585 12.5579 5.16543C11.7201 4.10502 10.5495 3.3577 9.235 3.04399V2.39199C9.23879 2.20875 9.2056 2.02662 9.13743 1.85648C9.06925 1.68635 8.96749 1.5317 8.83821 1.40177C8.70894 1.27184 8.5548 1.1693 8.38501 1.10027C8.21522 1.03123 8.03326 0.997131 7.85 0.999992L7.851 0.998992ZM9.742 20.933H6.003C6.003 21.4228 6.19759 21.8926 6.54397 22.239C6.89035 22.5854 7.36015 22.78 7.85 22.78C8.33986 22.78 8.80965 22.5854 9.15603 22.239C9.50241 21.8926 9.697 21.4228 9.697 20.933H9.742Z" fill="#49505C"/>
</svg>
