<svg width="50" height="50" viewBox="0 0 50 50" fill="none" xmlns="http://www.w3.org/2000/svg">
<rect width="50" height="50" rx="10" fill="#FAB545"/>
<path d="M23.9792 26.8021C22.7946 26.8021 21.6365 26.4508 20.6515 25.7927C19.6666 25.1345 18.8989 24.1991 18.4455 23.1046C17.9922 22.0102 17.8736 20.8058 18.1047 19.644C18.3358 18.4821 18.9062 17.4149 19.7439 16.5772C20.5816 15.7396 21.6488 15.1691 22.8106 14.938C23.9725 14.7069 25.1769 14.8255 26.2713 15.2788C27.3657 15.7322 28.3011 16.4999 28.9594 17.4849C29.6175 18.4698 29.9687 19.6279 29.9687 20.8125C29.966 22.4002 29.3341 23.9221 28.2114 25.0447C27.0887 26.1674 25.5669 26.7994 23.9792 26.8021ZM23.9792 16.3854C23.1035 16.3854 22.2476 16.6451 21.5196 17.1315C20.7916 17.618 20.2242 18.3094 19.8891 19.1183C19.554 19.9273 19.4663 20.8174 19.6372 21.6762C19.808 22.5349 20.2296 23.3238 20.8487 23.9429C21.4679 24.5621 22.2567 24.9837 23.1155 25.1545C23.9743 25.3253 24.8644 25.2377 25.6733 24.9026C26.4823 24.5675 27.1737 24.0001 27.6601 23.2721C28.1466 22.544 28.4062 21.6881 28.4062 20.8125C28.4035 19.6392 27.9361 18.5148 27.1066 17.6851C26.2769 16.8555 25.1525 16.3882 23.9792 16.3854V16.3854Z" fill="white"/>
<path d="M14.6042 35.1354C14.3978 35.1327 14.2007 35.0496 14.0547 34.9036C13.9088 34.7577 13.8256 34.5605 13.8229 34.3541C13.8284 31.9385 14.7905 29.6234 16.4986 27.9153C18.2067 26.2072 20.5219 25.2451 22.9375 25.2396H25.0208C25.228 25.2396 25.4268 25.3219 25.5732 25.4684C25.7198 25.6149 25.8021 25.8136 25.8021 26.0208C25.8021 26.228 25.7198 26.4268 25.5732 26.5732C25.4268 26.7198 25.228 26.8021 25.0208 26.8021H22.9375C20.9354 26.8048 19.0161 27.6013 17.6004 29.0171C16.1847 30.4328 15.3882 32.3521 15.3854 34.3541C15.3827 34.5605 15.2995 34.7577 15.1536 34.9036C15.0077 35.0496 14.8105 35.1327 14.6042 35.1354V35.1354Z" fill="white"/>
<path d="M27.1042 36.1771C26.9035 36.1606 26.7169 36.0674 26.5833 35.9166L22.4167 31.75C22.3471 31.6041 22.3243 31.4404 22.3517 31.2812C22.379 31.122 22.455 30.9751 22.5693 30.8608C22.6834 30.7466 22.8303 30.6706 22.9896 30.6433C23.1487 30.616 23.3126 30.6387 23.4583 30.7083L27.0312 34.2812L33.8125 26.5416C33.8809 26.4651 33.9637 26.4027 34.0562 26.3581C34.1487 26.3134 34.2492 26.2875 34.3517 26.2817C34.4542 26.2759 34.5569 26.2904 34.6537 26.3242C34.7507 26.3581 34.8401 26.4107 34.9167 26.4791C34.9933 26.5476 35.0556 26.6304 35.1003 26.7229C35.1449 26.8154 35.1708 26.9157 35.1766 27.0183C35.1824 27.1208 35.1679 27.2235 35.1341 27.3204C35.1002 27.4174 35.0476 27.5067 34.9792 27.5833L27.6875 35.9166C27.6194 35.9978 27.5351 36.0637 27.4401 36.1104C27.345 36.157 27.2412 36.1833 27.1354 36.1875L27.1042 36.1771Z" fill="white"/>
</svg>
