<svg width="13" height="13" viewBox="0 0 13 13" fill="none" xmlns="http://www.w3.org/2000/svg">
<path d="M12.8468 12.0553L9.21912 8.39092C10.041 7.35365 10.4346 6.04045 10.3187 4.72155C10.2028 3.40265 9.5864 2.17837 8.59624 1.30063C7.60609 0.422891 6.31753 -0.041533 4.99572 0.00292047C3.67391 0.047374 2.4194 0.597324 1.49032 1.53961C0.561244 2.48189 0.0282783 3.74482 0.00109331 5.06854C-0.0260917 6.39225 0.454572 7.67605 1.34418 8.65576C2.23378 9.63548 3.46466 10.2366 4.78353 10.3354C6.1024 10.4342 7.40893 10.0232 8.43428 9.18692L12.0376 12.8279C12.1399 12.9342 12.2798 12.996 12.4272 12.9998C12.5746 13.0037 12.7176 12.9493 12.8253 12.8485C12.933 12.7461 12.9958 12.605 12.9998 12.4564C13.0038 12.3077 12.9488 12.1634 12.8468 12.0553V12.0553ZM5.15834 9.23C4.21414 9.22982 3.2992 8.90193 2.56941 8.30216C1.83962 7.7024 1.34013 6.86789 1.15604 5.94079C0.971956 5.0137 1.11466 4.05139 1.55984 3.21781C2.00501 2.38423 2.72513 1.73096 3.59749 1.3693C4.46984 1.00764 5.44048 0.959963 6.34401 1.23439C7.24755 1.50882 8.02809 2.08838 8.55265 2.87432C9.07721 3.66026 9.31333 4.60396 9.22079 5.54465C9.12825 6.48533 8.71277 7.36479 8.04514 8.03319C7.66678 8.41395 7.21673 8.71578 6.72104 8.92122C6.22536 9.12665 5.69389 9.2316 5.15741 9.23H5.15834Z" fill="#878A99"/>
</svg>
