<svg xmlns="http://www.w3.org/2000/svg" width="20" height="19.737" viewBox="0 0 20 19.737">
  <g id="Signin_to_continue" data-name="Signin to continue" transform="translate(-1059 -265)">
    <path id="Path_256" data-name="Path 256" d="M410.57,392.278a1.012,1.012,0,0,0-2.016.015A1.012,1.012,0,1,0,410.57,392.278Z" transform="translate(666.405 -111.21)" fill="#3d3d3d"/>
    <path id="Path_257" data-name="Path 257" d="M172.309,325.39c-.094-.579-.248-2.252-.954-2.418a2.492,2.492,0,0,0-.487-.36,8.3,8.3,0,0,0-3.474-.153c-1.358.067-1.37.645-1.946,1.625-1.967.72-4.453-.807-6.259.53a2.106,2.106,0,0,0-.608,2.04c.594,1.544,2.752,1.388,4.108,1.364a.6.6,0,0,0-.129-1.2c-.717.052-3.086.332-3.034-.744.078-1.785,3.115-.905,4.3-.984a3.8,3.8,0,0,0,2.128-.411c.444-.372.419-1.165.953-1.4a7.307,7.307,0,0,1,3.637.086.864.864,0,0,1,.1.093c-.051.614.855,1.622.542,3.359-.164.729-.272,1.942-1.248,1.94-.222.012-1.059.019-1.291.041-1.057.264-2.488-.151-2.6-1.392a.272.272,0,0,0-.541.047c.034,1.619,1.832,2.391,3.249,2.129,1.211.034,2.347.248,2.955-1.092A6.26,6.26,0,0,0,172.309,325.39Zm-6.863-1.3h0S165.445,324.088,165.446,324.088Z" transform="translate(906.673 -44.889)" fill="#3d3d3d"/>
    <path id="Path_258" data-name="Path 258" d="M3.29,22.333c-.916.094-2.035.023-2.457-.877a4.086,4.086,0,0,1,.248-2.038c1.225-3.924,5.544-5.864,9.421-5.7a12.175,12.175,0,0,1,2.736.214.343.343,0,0,0,.211-.645,6.176,6.176,0,0,0-.952-.336,5.148,5.148,0,0,0,1.839-1.817,5.166,5.166,0,0,0-.263-5.867,5.1,5.1,0,0,0-9.079,3.1,5.519,5.519,0,0,0,2.3,4.446,9.024,9.024,0,0,0-1.687.532A9.3,9.3,0,0,0,.31,19.186a4.581,4.581,0,0,0-.182,2.526A2.478,2.478,0,0,0,2.38,23.062c.914.054,1.794-.218,2.687-.156a.343.343,0,0,0,.392-.312C5.5,21.879,3.687,22.36,3.29,22.333ZM5.675,8.361a4.281,4.281,0,0,1,7.317-3.015,4.074,4.074,0,0,1,.265,5.383,4.263,4.263,0,0,1-4.013,1.688A4.316,4.316,0,0,1,5.675,8.361Z" transform="translate(1059 261.634)" fill="#3d3d3d"/>
  </g>
</svg>
