<svg xmlns="http://www.w3.org/2000/svg" width="18" height="17.217" viewBox="0 0 18 17.217">
  <g id="Login_icon" data-name="Login icon" transform="translate(-243 -569)">
    <path id="Path_302" data-name="Path 302" d="M11.935,220.174H.587a.587.587,0,0,1,0-1.174H11.935a.587.587,0,0,1,0,1.174Zm0,0" transform="translate(243 358.022)" fill="#7f0000"/>
    <path id="Path_303" data-name="Path 303" d="M224.591,141.065a.587.587,0,0,1-.415-1l2.716-2.716-2.716-2.716a.587.587,0,0,1,.83-.83l3.13,3.131a.587.587,0,0,1,0,.83l-3.13,3.13A.582.582,0,0,1,224.591,141.065Zm0,0" transform="translate(27.214 440.261)" fill="#7f0000"/>
    <path id="Path_304" data-name="Path 304" d="M44.525,17.55a8.564,8.564,0,0,1-8.012-5.46.587.587,0,1,1,1.093-.429,7.435,7.435,0,1,0,0-5.441.587.587,0,1,1-1.093-.429A8.609,8.609,0,1,1,44.525,17.55Zm0,0" transform="translate(207.866 568.667)" fill="#7f0000"/>
  </g>
</svg>
